<svg xmlns="http://www.w3.org/2000/svg" viewBox="0 0 156 81" width="156" height="81">
  <g stroke-linecap="round" fill="none">
    <path d="M12 60 L46 44" stroke="#f9b1d2" stroke-width="4"/>
    <path d="M16 68 L48 52" stroke="#ffffff" stroke-width="4"/>
    <path d="M22 75 L50 60" stroke="#fcdb7c" stroke-width="3"/>
    <path d="M86 20 L118 8" stroke="#f9b1d2" stroke-width="3.5"/>
    <path d="M90 28 L120 16" stroke="#ffffff" stroke-width="3.5"/>
    <path d="M95 35 L122 24" stroke="#fcdb7c" stroke-width="3"/>
  </g>
  <g fill="#fcdb7c" stroke="#fcdb7c" stroke-width="2" stroke-linejoin="round">
    <path d="M0.00 -10.00 L2.82 -3.88 L9.51 -3.09 L4.57 1.48 L5.88 8.09 L0.00 4.80 L-5.88 8.09 L-4.57 1.48 L-9.51 -3.09 L-2.82 -3.88 Z" transform="translate(56 49) rotate(12) scale(1.3)"/>
    <path d="M0.00 -10.00 L2.82 -3.88 L9.51 -3.09 L4.57 1.48 L5.88 8.09 L0.00 4.80 L-5.88 8.09 L-4.57 1.48 L-9.51 -3.09 L-2.82 -3.88 Z" transform="translate(130 14) rotate(-8) scale(1.1)"/>
    <path d="M0.00 -10.00 L2.82 -3.88 L9.51 -3.09 L4.57 1.48 L5.88 8.09 L0.00 4.80 L-5.88 8.09 L-4.57 1.48 L-9.51 -3.09 L-2.82 -3.88 Z" transform="translate(140 60) rotate(20) scale(0.65)"/>
  </g>
</svg>
